<svg width="20" height="23" viewBox="0 0 20 23" fill="none" xmlns="http://www.w3.org/2000/svg">
<rect width="20" height="23" fill="#393939"/>
<g clip-path="url(#clip0_0_1)">
<rect x="-327" y="-418" width="393" height="852" rx="32" fill="white"/>
<path d="M-302 -9.5127H42C46.1422 -9.5127 49.5 -6.15483 49.5 -2.0127V21.9873C49.5 26.1294 46.1421 29.4873 42 29.4873H-302C-306.142 29.4873 -309.5 26.1294 -309.5 21.9873V-2.0127C-309.5 -6.15483 -306.142 -9.5127 -302 -9.5127Z" fill="#FFEEED" stroke="#FDA29B"/>
<path d="M2.85865 5.62466C3.13775 5.31859 3.11589 4.84422 2.80983 4.56512C2.50376 4.28603 2.02939 4.30789 1.75029 4.61395L2.85865 5.62466ZM6 4.2373C6.0061 4.2373 6.0122 4.2373 6.01829 4.2373C6.02438 4.2373 6.03047 4.2373 6.03655 4.2373C6.04263 4.2373 6.04871 4.2373 6.05478 4.2373C6.06085 4.2373 6.06691 4.2373 6.07297 4.2373C6.07903 4.2373 6.08509 4.2373 6.09114 4.2373C6.09719 4.2373 6.10323 4.2373 6.10927 4.2373C6.11531 4.2373 6.12135 4.2373 6.12738 4.2373C6.13341 4.2373 6.13943 4.2373 6.14545 4.2373C6.15147 4.2373 6.15749 4.2373 6.1635 4.2373C6.1695 4.2373 6.17551 4.2373 6.18151 4.2373C6.18751 4.2373 6.1935 4.2373 6.19949 4.2373C6.20548 4.2373 6.21146 4.2373 6.21744 4.2373C6.22342 4.2373 6.2294 4.2373 6.23537 4.2373C6.24134 4.2373 6.2473 4.2373 6.25326 4.2373C6.25922 4.2373 6.26517 4.2373 6.27112 4.2373C6.27707 4.2373 6.28302 4.2373 6.28896 4.2373C6.2949 4.2373 6.30083 4.2373 6.30676 4.2373C6.31269 4.2373 6.31861 4.2373 6.32453 4.2373C6.33045 4.2373 6.33637 4.2373 6.34228 4.2373C6.34819 4.2373 6.3541 4.2373 6.36 4.2373C6.3659 4.2373 6.37179 4.2373 6.37768 4.2373C6.38358 4.2373 6.38946 4.2373 6.39534 4.2373C6.40122 4.2373 6.4071 4.2373 6.41297 4.2373C6.41885 4.2373 6.42471 4.2373 6.43057 4.2373C6.43644 4.2373 6.44229 4.2373 6.44815 4.2373C6.454 4.2373 6.45985 4.2373 6.46569 4.2373C6.47154 4.2373 6.47737 4.2373 6.48321 4.2373C6.48904 4.2373 6.49487 4.2373 6.5007 4.2373C6.50652 4.2373 6.51234 4.2373 6.51816 4.2373C6.52397 4.2373 6.52978 4.2373 6.53559 4.2373C6.5414 4.2373 6.5472 4.2373 6.55299 4.2373C6.55879 4.2373 6.56458 4.2373 6.57037 4.2373C6.57616 4.2373 6.58194 4.2373 6.58772 4.2373C6.5935 4.2373 6.59927 4.2373 6.60504 4.2373C6.61081 4.2373 6.61658 4.2373 6.62234 4.2373C6.6281 4.2373 6.63385 4.2373 6.63961 4.2373C6.64536 4.2373 6.6511 4.2373 6.65685 4.2373C6.66259 4.2373 6.66833 4.2373 6.67406 4.2373C6.67979 4.2373 6.68552 4.2373 6.69125 4.2373C6.69697 4.2373 6.70269 4.2373 6.70841 4.2373C6.71413 4.2373 6.71984 4.2373 6.72554 4.2373C6.73125 4.2373 6.73695 4.2373 6.74265 4.2373C6.74835 4.2373 6.75404 4.2373 6.75973 4.2373C6.76542 4.2373 6.77111 4.2373 6.77679 4.2373C6.78247 4.2373 6.78815 4.2373 6.79382 4.2373C6.79949 4.2373 6.80516 4.2373 6.81082 4.2373C6.81648 4.2373 6.82214 4.2373 6.8278 4.2373C6.83345 4.2373 6.8391 4.2373 6.84475 4.2373C6.8504 4.2373 6.85604 4.2373 6.86168 4.2373C6.86731 4.2373 6.87295 4.2373 6.87858 4.2373C6.88421 4.2373 6.88983 4.2373 6.89545 4.2373C6.90107 4.2373 6.90669 4.2373 6.9123 4.2373C6.91792 4.2373 6.92353 4.2373 6.92913 4.2373C6.93473 4.2373 6.94033 4.2373 6.94593 4.2373C6.95153 4.2373 6.95712 4.2373 6.96271 4.2373C6.96829 4.2373 6.97388 4.2373 6.97946 4.2373C6.98504 4.2373 6.99061 4.2373 6.99618 4.2373C7.00176 4.2373 7.00732 4.2373 7.01289 4.2373C7.01845 4.2373 7.02401 4.2373 7.02956 4.2373C7.03512 4.2373 7.04067 4.2373 7.04622 4.2373C7.05177 4.2373 7.05731 4.2373 7.06285 4.2373C7.06839 4.2373 7.07392 4.2373 7.07945 4.2373C7.08499 4.2373 7.09051 4.2373 7.09604 4.2373C7.10156 4.2373 7.10708 4.2373 7.11259 4.2373C7.11811 4.2373 7.12362 4.2373 7.12913 4.2373C7.13464 4.2373 7.14014 4.2373 7.14564 4.2373C7.15114 4.2373 7.15664 4.2373 7.16213 4.2373C7.16762 4.2373 7.17311 4.2373 7.17859 4.2373C7.18408 4.2373 7.18956 4.2373 7.19504 4.2373C7.20051 4.2373 7.20599 4.2373 7.21145 4.2373C7.21692 4.2373 7.22239 4.2373 7.22785 4.2373C7.23331 4.2373 7.23877 4.2373 7.24422 4.2373C7.24968 4.2373 7.25513 4.2373 7.26057 4.2373C7.26602 4.2373 7.27146 4.2373 7.2769 4.2373C7.28234 4.2373 7.28778 4.2373 7.29321 4.2373C7.29864 4.2373 7.30407 4.2373 7.30949 4.2373C7.31492 4.2373 7.32034 4.2373 7.32575 4.2373C7.33117 4.2373 7.33658 4.2373 7.34199 4.2373C7.3474 4.2373 7.35281 4.2373 7.35821 4.2373C7.36361 4.2373 7.36901 4.2373 7.37441 4.2373C7.3798 4.2373 7.38519 4.2373 7.39058 4.2373C7.39597 4.2373 7.40135 4.2373 7.40673 4.2373C7.41212 4.2373 7.41749 4.2373 7.42287 4.2373C7.42824 4.2373 7.43361 4.2373 7.43898 4.2373C7.44434 4.2373 7.44971 4.2373 7.45507 4.2373C7.46043 4.2373 7.46578 4.2373 7.47113 4.2373C7.47649 4.2373 7.48184 4.2373 7.48718 4.2373C7.49253 4.2373 7.49787 4.2373 7.50321 4.2373C7.50855 4.2373 7.51388 4.2373 7.51921 4.2373C7.52455 4.2373 7.52987 4.2373 7.5352 4.2373C7.54053 4.2373 7.54585 4.2373 7.55117 4.2373C7.55648 4.2373 7.5618 4.2373 7.56711 4.2373C7.57242 4.2373 7.57773 4.2373 7.58303 4.2373C7.58834 4.2373 7.59364 4.2373 7.59894 4.2373C7.60424 4.2373 7.60953 4.2373 7.61483 4.2373C7.62012 4.2373 7.62541 4.2373 7.63069 4.2373C7.63598 4.2373 7.64126 4.2373 7.64654 4.2373C7.65181 4.2373 7.65709 4.2373 7.66236 4.2373C7.66763 4.2373 7.6729 4.2373 7.67817 4.2373C7.68343 4.2373 7.6887 4.2373 7.69396 4.2373C7.69922 4.2373 7.70447 4.2373 7.70972 4.2373C7.71498 4.2373 7.72023 4.2373 7.72547 4.2373C7.73072 4.2373 7.73596 4.2373 7.7412 4.2373C7.74644 4.2373 7.75168 4.2373 7.75692 4.2373C7.76215 4.2373 7.76738 4.2373 7.77261 4.2373C7.77784 4.2373 7.78306 4.2373 7.78828 4.2373C7.7935 4.2373 7.79872 4.2373 7.80394 4.2373C7.80915 4.2373 7.81437 4.2373 7.81958 4.2373C7.82479 4.2373 7.82999 4.2373 7.8352 4.2373C7.8404 4.2373 7.8456 4.2373 7.8508 4.2373C7.856 4.2373 7.86119 4.2373 7.86638 4.2373C7.87157 4.2373 7.87676 4.2373 7.88195 4.2373C7.88713 4.2373 7.89232 4.2373 7.8975 4.2373C7.90267 4.2373 7.90785 4.2373 7.91303 4.2373C7.9182 4.2373 7.92337 4.2373 7.92854 4.2373C7.93371 4.2373 7.93887 4.2373 7.94403 4.2373C7.9492 4.2373 7.95436 4.2373 7.95951 4.2373C7.96467 4.2373 7.96982 4.2373 7.97497 4.2373C7.98013 4.2373 7.98527 4.2373 7.99042 4.2373C7.99556 4.2373 8.00071 4.2373 8.00585 4.2373C8.01099 4.2373 8.01612 4.2373 8.02126 4.2373C8.02639 4.2373 8.03152 4.2373 8.03665 4.2373C8.04178 4.2373 8.04691 4.2373 8.05203 4.2373C8.05715 4.2373 8.06228 4.2373 8.06739 4.2373C8.07251 4.2373 8.07763 4.2373 8.08274 4.2373C8.08785 4.2373 8.09296 4.2373 8.09807 4.2373C8.10318 4.2373 8.10828 4.2373 8.11338 4.2373C8.11848 4.2373 8.12358 4.2373 8.12868 4.2373C8.13378 4.2373 8.13887 4.2373 8.14396 4.2373C8.14905 4.2373 8.15414 4.2373 8.15923 4.2373C8.16431 4.2373 8.1694 4.2373 8.17448 4.2373C8.17956 4.2373 8.18464 4.2373 8.18971 4.2373C8.19479 4.2373 8.19986 4.2373 8.20494 4.2373C8.21001 4.2373 8.21507 4.2373 8.22014 4.2373C8.22521 4.2373 8.23027 4.2373 8.23533 4.2373C8.24039 4.2373 8.24545 4.2373 8.25051 4.2373C8.25556 4.2373 8.26062 4.2373 8.26567 4.2373C8.27072 4.2373 8.27577 4.2373 8.28081 4.2373C8.28586 4.2373 8.2909 4.2373 8.29595 4.2373C8.30099 4.2373 8.30603 4.2373 8.31106 4.2373C8.3161 4.2373 8.32113 4.2373 8.32617 4.2373C8.3312 4.2373 8.33623 4.2373 8.34126 4.2373C8.34628 4.2373 8.35131 4.2373 8.35633 4.2373C8.36135 4.2373 8.36637 4.2373 8.37139 4.2373C8.37641 4.2373 8.38142 4.2373 8.38644 4.2373C8.39145 4.2373 8.39646 4.2373 8.40147 4.2373C8.40648 4.2373 8.41149 4.2373 8.41649 4.2373C8.4215 4.2373 8.4265 4.2373 8.4315 4.2373C8.4365 4.2373 8.4415 4.2373 8.44649 4.2373C8.45149 4.2373 8.45648 4.2373 8.46147 4.2373C8.46646 4.2373 8.47145 4.2373 8.47644 4.2373C8.48143 4.2373 8.48641 4.2373 8.4914 4.2373C8.49638 4.2373 8.50136 4.2373 8.50634 4.2373C8.51132 4.2373 8.51629 4.2373 8.52127 4.2373C8.52624 4.2373 8.53121 4.2373 8.53618 4.2373C8.54115 4.2373 8.54612 4.2373 8.55109 4.2373C8.55605 4.2373 8.56102 4.2373 8.56598 4.2373C8.57094 4.2373 8.5759 4.2373 8.58086 4.2373C8.58582 4.2373 8.59077 4.2373 8.59573 4.2373C8.60068 4.2373 8.60563 4.2373 8.61058 4.2373C8.61553 4.2373 8.62048 4.2373 8.62543 4.2373C8.63037 4.2373 8.63532 4.2373 8.64026 4.2373C8.6452 4.2373 8.65014 4.2373 8.65508 4.2373C8.66002 4.2373 8.66496 4.2373 8.66989 4.2373C8.67483 4.2373 8.67976 4.2373 8.68469 4.2373C8.68962 4.2373 8.69455 4.2373 8.69948 4.2373C8.7044 4.2373 8.70933 4.2373 8.71425 4.2373C8.71918 4.2373 8.7241 4.2373 8.72902 4.2373C8.73394 4.2373 8.73886 4.2373 8.74377 4.2373C8.74869 4.2373 8.7536 4.2373 8.75852 4.2373C8.76343 4.2373 8.76834 4.2373 8.77325 4.2373C8.77816 4.2373 8.78307 4.2373 8.78797 4.2373C8.79288 4.2373 8.79778 4.2373 8.80268 4.2373C8.80759 4.2373 8.81249 4.2373 8.81739 4.2373C8.82229 4.2373 8.82718 4.2373 8.83208 4.2373C8.83697 4.2373 8.84187 4.2373 8.84676 4.2373C8.85165 4.2373 8.85654 4.2373 8.86143 4.2373C8.86632 4.2373 8.87121 4.2373 8.8761 4.2373C8.88098 4.2373 8.88587 4.2373 8.89075 4.2373C8.89563 4.2373 8.90051 4.2373 8.90539 4.2373C8.91027 4.2373 8.91515 4.2373 8.92003 4.2373C8.9249 4.2373 8.92978 4.2373 8.93465 4.2373C8.93953 4.2373 8.9444 4.2373 8.94927 4.2373C8.95414 4.2373 8.95901 4.2373 8.96388 4.2373C8.96874 4.2373 8.97361 4.2373 8.97847 4.2373C8.98334 4.2373 8.9882 4.2373 8.99306 4.2373C8.99793 4.2373 9.00279 4.2373 9.00764 4.2373C9.0125 4.2373 9.01736 4.2373 9.02222 4.2373C9.02707 4.2373 9.03193 4.2373 9.03678 4.2373C9.04163 4.2373 9.04649 4.2373 9.05134 4.2373C9.05619 4.2373 9.06104 4.2373 9.06588 4.2373C9.07073 4.2373 9.07558 4.2373 9.08043 4.2373C9.08527 4.2373 9.09011 4.2373 9.09496 4.2373C9.0998 4.2373 9.10464 4.2373 9.10948 4.2373C9.11432 4.2373 9.11916 4.2373 9.124 4.2373C9.12884 4.2373 9.13367 4.2373 9.13851 4.2373C9.14334 4.2373 9.14818 4.2373 9.15301 4.2373C9.15784 4.2373 9.16267 4.2373 9.1675 4.2373C9.17233 4.2373 9.17716 4.2373 9.18199 4.2373C9.18682 4.2373 9.19165 4.2373 9.19647 4.2373C9.2013 4.2373 9.20612 4.2373 9.21095 4.2373C9.21577 4.2373 9.22059 4.2373 9.22541 4.2373C9.23023 4.2373 9.23505 4.2373 9.23987 4.2373C9.24469 4.2373 9.24951 4.2373 9.25433 4.2373C9.25914 4.2373 9.26396 4.2373 9.26877 4.2373C9.27359 4.2373 9.2784 4.2373 9.28321 4.2373C9.28803 4.2373 9.29284 4.2373 9.29765 4.2373C9.30246 4.2373 9.30727 4.2373 9.31208 4.2373C9.31689 4.2373 9.32169 4.2373 9.3265 4.2373C9.33131 4.2373 9.33611 4.2373 9.34092 4.2373C9.34572 4.2373 9.35053 4.2373 9.35533 4.2373C9.36013 4.2373 9.36493 4.2373 9.36974 4.2373C9.37454 4.2373 9.37934 4.2373 9.38414 4.2373C9.38894 4.2373 9.39373 4.2373 9.39853 4.2373C9.40333 4.2373 9.40813 4.2373 9.41292 4.2373C9.41772 4.2373 9.42251 4.2373 9.42731 4.2373C9.4321 4.2373 9.4369 4.2373 9.44169 4.2373C9.44648 4.2373 9.45127 4.2373 9.45606 4.2373C9.46085 4.2373 9.46564 4.2373 9.47043 4.2373C9.47522 4.2373 9.48001 4.2373 9.4848 4.2373C9.48959 4.2373 9.49438 4.2373 9.49916 4.2373C9.50395 4.2373 9.50873 4.2373 9.51352 4.2373C9.51831 4.2373 9.52309 4.2373 9.52787 4.2373C9.53266 4.2373 9.53744 4.2373 9.54222 4.2373C9.54701 4.2373 9.55179 4.2373 9.55657 4.2373C9.56135 4.2373 9.56613 4.2373 9.57091 4.2373C9.57569 4.2373 9.58047 4.2373 9.58525 4.2373C9.59003 4.2373 9.5948 4.2373 9.59958 4.2373C9.60436 4.2373 9.60914 4.2373 9.61391 4.2373C9.61869 4.2373 9.62347 4.2373 9.62824 4.2373C9.63302 4.2373 9.63779 4.2373 9.64257 4.2373C9.64734 4.2373 9.65211 4.2373 9.65689 4.2373C9.66166 4.2373 9.66643 4.2373 9.67121 4.2373C9.67598 4.2373 9.68075 4.2373 9.68552 4.2373C9.69029 4.2373 9.69506 4.2373 9.69983 4.2373C9.70461 4.2373 9.70938 4.2373 9.71414 4.2373C9.71891 4.2373 9.72368 4.2373 9.72845 4.2373C9.73322 4.2373 9.73799 4.2373 9.74276 4.2373C9.74753 4.2373 9.75229 4.2373 9.75706 4.2373C9.76183 4.2373 9.7666 4.2373 9.77136 4.2373C9.77613 4.2373 9.7809 4.2373 9.78566 4.2373C9.79043 4.2373 9.79519 4.2373 9.79996 4.2373C9.80473 4.2373 9.80949 4.2373 9.81426 4.2373C9.81902 4.2373 9.82378 4.2373 9.82855 4.2373C9.83331 4.2373 9.83808 4.2373 9.84284 4.2373C9.84761 4.2373 9.85237 4.2373 9.85713 4.2373C9.8619 4.2373 9.86666 4.2373 9.87142 4.2373C9.87619 4.2373 9.88095 4.2373 9.88571 4.2373C9.89048 4.2373 9.89524 4.2373 9.9 4.2373C9.90476 4.2373 9.90953 4.2373 9.91429 4.2373C9.91905 4.2373 9.92381 4.2373 9.92857 4.2373C9.93334 4.2373 9.9381 4.2373 9.94286 4.2373C9.94762 4.2373 9.95238 4.2373 9.95715 4.2373C9.96191 4.2373 9.96667 4.2373 9.97143 4.2373C9.97619 4.2373 9.98095 4.2373 9.98572 4.2373C9.99048 4.2373 9.99524 4.2373 10 4.2373C10.0048 4.2373 10.0095 4.2373 10.0143 4.2373C10.019 4.2373 10.0238 4.2373 10.0286 4.2373C10.0333 4.2373 10.0381 4.2373 10.0429 4.2373C10.0476 4.2373 10.0524 4.2373 10.0571 4.2373C10.0619 4.2373 10.0667 4.2373 10.0714 4.2373C10.0762 4.2373 10.0809 4.2373 10.0857 4.2373C10.0905 4.2373 10.0952 4.2373 10.1 4.2373C10.1048 4.2373 10.1095 4.2373 10.1143 4.2373C10.1191 4.2373 10.1238 4.2373 10.1286 4.2373C10.1333 4.2373 10.1381 4.2373 10.1429 4.2373C10.1476 4.2373 10.1524 4.2373 10.1572 4.2373C10.1619 4.2373 10.1667 4.2373 10.1715 4.2373C10.1762 4.2373 10.181 4.2373 10.1857 4.2373C10.1905 4.2373 10.1953 4.2373 10.2 4.2373C10.2048 4.2373 10.2096 4.2373 10.2143 4.2373C10.2191 4.2373 10.2239 4.2373 10.2286 4.2373C10.2334 4.2373 10.2382 4.2373 10.2429 4.2373C10.2477 4.2373 10.2525 4.2373 10.2572 4.2373C10.262 4.2373 10.2668 4.2373 10.2715 4.2373C10.2763 4.2373 10.2811 4.2373 10.2859 4.2373C10.2906 4.2373 10.2954 4.2373 10.3002 4.2373C10.3049 4.2373 10.3097 4.2373 10.3145 4.2373C10.3193 4.2373 10.324 4.2373 10.3288 4.2373C10.3336 4.2373 10.3383 4.2373 10.3431 4.2373C10.3479 4.2373 10.3527 4.2373 10.3574 4.2373C10.3622 4.2373 10.367 4.2373 10.3718 4.2373C10.3765 4.2373 10.3813 4.2373 10.3861 4.2373C10.3909 4.2373 10.3956 4.2373 10.4004 4.2373C10.4052 4.2373 10.41 4.2373 10.4148 4.2373C10.4195 4.2373 10.4243 4.2373 10.4291 4.2373C10.4339 4.2373 10.4387 4.2373 10.4434 4.2373C10.4482 4.2373 10.453 4.2373 10.4578 4.2373C10.4626 4.2373 10.4673 4.2373 10.4721 4.2373C10.4769 4.2373 10.4817 4.2373 10.4865 4.2373C10.4913 4.2373 10.4961 4.2373 10.5008 4.2373C10.5056 4.2373 10.5104 4.2373 10.5152 4.2373C10.52 4.2373 10.5248 4.2373 10.5296 4.2373C10.5344 4.2373 10.5391 4.2373 10.5439 4.2373C10.5487 4.2373 10.5535 4.2373 10.5583 4.2373C10.5631 4.2373 10.5679 4.2373 10.5727 4.2373C10.5775 4.2373 10.5823 4.2373 10.5871 4.2373C10.5919 4.2373 10.5967 4.2373 10.6015 4.2373C10.6063 4.2373 10.6111 4.2373 10.6159 4.2373C10.6207 4.2373 10.6255 4.2373 10.6303 4.2373C10.6351 4.2373 10.6399 4.2373 10.6447 4.2373C10.6495 4.2373 10.6543 4.2373 10.6591 4.2373C10.6639 4.2373 10.6687 4.2373 10.6735 4.2373C10.6783 4.2373 10.6831 4.2373 10.6879 4.2373C10.6927 4.2373 10.6975 4.2373 10.7024 4.2373C10.7072 4.2373 10.712 4.2373 10.7168 4.2373C10.7216 4.2373 10.7264 4.2373 10.7312 4.2373C10.736 4.2373 10.7409 4.2373 10.7457 4.2373C10.7505 4.2373 10.7553 4.2373 10.7601 4.2373C10.7649 4.2373 10.7698 4.2373 10.7746 4.2373C10.7794 4.2373 10.7842 4.2373 10.7891 4.2373C10.7939 4.2373 10.7987 4.2373 10.8035 4.2373C10.8084 4.2373 10.8132 4.2373 10.818 4.2373C10.8228 4.2373 10.8277 4.2373 10.8325 4.2373C10.8373 4.2373 10.8422 4.2373 10.847 4.2373C10.8518 4.2373 10.8567 4.2373 10.8615 4.2373C10.8663 4.2373 10.8712 4.2373 10.876 4.2373C10.8808 4.2373 10.8857 4.2373 10.8905 4.2373C10.8954 4.2373 10.9002 4.2373 10.905 4.2373C10.9099 4.2373 10.9147 4.2373 10.9196 4.2373C10.9244 4.2373 10.9293 4.2373 10.9341 4.2373C10.939 4.2373 10.9438 4.2373 10.9487 4.2373C10.9535 4.2373 10.9584 4.2373 10.9632 4.2373C10.9681 4.2373 10.9729 4.2373 10.9778 4.2373C10.9826 4.2373 10.9875 4.2373 10.9924 4.2373C10.9972 4.2373 11.0021 4.2373 11.0069 4.2373C11.0118 4.2373 11.0167 4.2373 11.0215 4.2373C11.0264 4.2373 11.0313 4.2373 11.0361 4.2373C11.041 4.2373 11.0459 4.2373 11.0507 4.2373C11.0556 4.2373 11.0605 4.2373 11.0653 4.2373C11.0702 4.2373 11.0751 4.2373 11.08 4.2373C11.0848 4.2373 11.0897 4.2373 11.0946 4.2373C11.0995 4.2373 11.1044 4.2373 11.1093 4.2373C11.1141 4.2373 11.119 4.2373 11.1239 4.2373C11.1288 4.2373 11.1337 4.2373 11.1386 4.2373C11.1435 4.2373 11.1483 4.2373 11.1532 4.2373C11.1581 4.2373 11.163 4.2373 11.1679 4.2373C11.1728 4.2373 11.1777 4.2373 11.1826 4.2373C11.1875 4.2373 11.1924 4.2373 11.1973 4.2373C11.2022 4.2373 11.2071 4.2373 11.212 4.2373C11.2169 4.2373 11.2218 4.2373 11.2268 4.2373C11.2317 4.2373 11.2366 4.2373 11.2415 4.2373C11.2464 4.2373 11.2513 4.2373 11.2562 4.2373C11.2611 4.2373 11.2661 4.2373 11.271 4.2373C11.2759 4.2373 11.2808 4.2373 11.2857 4.2373C11.2907 4.2373 11.2956 4.2373 11.3005 4.2373C11.3055 4.2373 11.3104 4.2373 11.3153 4.2373C11.3202 4.2373 11.3252 4.2373 11.3301 4.2373C11.335 4.2373 11.34 4.2373 11.3449 4.2373C11.3499 4.2373 11.3548 4.2373 11.3597 4.2373C11.3647 4.2373 11.3696 4.2373 11.3746 4.2373C11.3795 4.2373 11.3845 4.2373 11.3894 4.2373C11.3944 4.2373 11.3993 4.2373 11.4043 4.2373C11.4092 4.2373 11.4142 4.2373 11.4191 4.2373C11.4241 4.2373 11.4291 4.2373 11.434 4.2373C11.439 4.2373 11.4439 4.2373 11.4489 4.2373C11.4539 4.2373 11.4588 4.2373 11.4638 4.2373C11.4688 4.2373 11.4738 4.2373 11.4787 4.2373C11.4837 4.2373 11.4887 4.2373 11.4937 4.2373C11.4986 4.2373 11.5036 4.2373 11.5086 4.2373C11.5136 4.2373 11.5186 4.2373 11.5236 4.2373C11.5285 4.2373 11.5335 4.2373 11.5385 4.2373C11.5435 4.2373 11.5485 4.2373 11.5535 4.2373C11.5585 4.2373 11.5635 4.2373 11.5685 4.2373C11.5735 4.2373 11.5785 4.2373 11.5835 4.2373C11.5885 4.2373 11.5935 4.2373 11.5985 4.2373C11.6035 4.2373 11.6085 4.2373 11.6136 4.2373C11.6186 4.2373 11.6236 4.2373 11.6286 4.2373C11.6336 4.2373 11.6386 4.2373 11.6437 4.2373C11.6487 4.2373 11.6537 4.2373 11.6587 4.2373C11.6638 4.2373 11.6688 4.2373 11.6738 4.2373C11.6789 4.2373 11.6839 4.2373 11.6889 4.2373C11.694 4.2373 11.699 4.2373 11.7041 4.2373C11.7091 4.2373 11.7141 4.2373 11.7192 4.2373C11.7242 4.2373 11.7293 4.2373 11.7343 4.2373C11.7394 4.2373 11.7444 4.2373 11.7495 4.2373C11.7545 4.2373 11.7596 4.2373 11.7647 4.2373C11.7697 4.2373 11.7748 4.2373 11.7799 4.2373C11.7849 4.2373 11.79 4.2373 11.7951 4.2373C11.8001 4.2373 11.8052 4.2373 11.8103 4.2373C11.8154 4.2373 11.8204 4.2373 11.8255 4.2373C11.8306 4.2373 11.8357 4.2373 11.8408 4.2373C11.8459 4.2373 11.8509 4.2373 11.856 4.2373C11.8611 4.2373 11.8662 4.2373 11.8713 4.2373C11.8764 4.2373 11.8815 4.2373 11.8866 4.2373C11.8917 4.2373 11.8968 4.2373 11.9019 4.2373C11.907 4.2373 11.9121 4.2373 11.9173 4.2373C11.9224 4.2373 11.9275 4.2373 11.9326 4.2373C11.9377 4.2373 11.9428 4.2373 11.948 4.2373C11.9531 4.2373 11.9582 4.2373 11.9633 4.2373C11.9685 4.2373 11.9736 4.2373 11.9787 4.2373C11.9839 4.2373 11.989 4.2373 11.9942 4.2373C11.9993 4.2373 12.0044 4.2373 12.0096 4.2373C12.0147 4.2373 12.0199 4.2373 12.025 4.2373C12.0302 4.2373 12.0353 4.2373 12.0405 4.2373C12.0456 4.2373 12.0508 4.2373 12.056 4.2373C12.0611 4.2373 12.0663 4.2373 12.0715 4.2373C12.0766 4.2373 12.0818 4.2373 12.087 4.2373C12.0921 4.2373 12.0973 4.2373 12.1025 4.2373C12.1077 4.2373 12.1129 4.2373 12.1181 4.2373C12.1232 4.2373 12.1284 4.2373 12.1336 4.2373C12.1388 4.2373 12.144 4.2373 12.1492 4.2373C12.1544 4.2373 12.1596 4.2373 12.1648 4.2373C12.17 4.2373 12.1752 4.2373 12.1804 4.2373C12.1856 4.2373 12.1908 4.2373 12.1961 4.2373C12.2013 4.2373 12.2065 4.2373 12.2117 4.2373C12.2169 4.2373 12.2222 4.2373 12.2274 4.2373C12.2326 4.2373 12.2379 4.2373 12.2431 4.2373C12.2483 4.2373 12.2536 4.2373 12.2588 4.2373C12.264 4.2373 12.2693 4.2373 12.2745 4.2373C12.2798 4.2373 12.285 4.2373 12.2903 4.2373C12.2955 4.2373 12.3008 4.2373 12.306 4.2373C12.3113 4.2373 12.3166 4.2373 12.3218 4.2373C12.3271 4.2373 12.3324 4.2373 12.3376 4.2373C12.3429 4.2373 12.3482 4.2373 12.3535 4.2373C12.3587 4.2373 12.364 4.2373 12.3693 4.2373C12.3746 4.2373 12.3799 4.2373 12.3852 4.2373C12.3905 4.2373 12.3958 4.2373 12.4011 4.2373C12.4064 4.2373 12.4117 4.2373 12.417 4.2373C12.4223 4.2373 12.4276 4.2373 12.4329 4.2373C12.4382 4.2373 12.4435 4.2373 12.4488 4.2373C12.4542 4.2373 12.4595 4.2373 12.4648 4.2373C12.4701 4.2373 12.4755 4.2373 12.4808 4.2373C12.4861 4.2373 12.4915 4.2373 12.4968 4.2373C12.5021 4.2373 12.5075 4.2373 12.5128 4.2373C12.5182 4.2373 12.5235 4.2373 12.5289 4.2373C12.5342 4.2373 12.5396 4.2373 12.5449 4.2373C12.5503 4.2373 12.5557 4.2373 12.561 4.2373C12.5664 4.2373 12.5718 4.2373 12.5771 4.2373C12.5825 4.2373 12.5879 4.2373 12.5933 4.2373C12.5986 4.2373 12.604 4.2373 12.6094 4.2373C12.6148 4.2373 12.6202 4.2373 12.6256 4.2373C12.631 4.2373 12.6364 4.2373 12.6418 4.2373C12.6472 4.2373 12.6526 4.2373 12.658 4.2373C12.6634 4.2373 12.6688 4.2373 12.6742 4.2373C12.6797 4.2373 12.6851 4.2373 12.6905 4.2373C12.6959 4.2373 12.7014 4.2373 12.7068 4.2373C12.7122 4.2373 12.7177 4.2373 12.7231 4.2373C12.7285 4.2373 12.734 4.2373 12.7394 4.2373C12.7449 4.2373 12.7503 4.2373 12.7558 4.2373C12.7612 4.2373 12.7667 4.2373 12.7722 4.2373C12.7776 4.2373 12.7831 4.2373 12.7885 4.2373C12.794 4.2373 12.7995 4.2373 12.805 4.2373C12.8104 4.2373 12.8159 4.2373 12.8214 4.2373C12.8269 4.2373 12.8324 4.2373 12.8379 4.2373C12.8434 4.2373 12.8489 4.2373 12.8544 4.2373C12.8599 4.2373 12.8654 4.2373 12.8709 4.2373C12.8764 4.2373 12.8819 4.2373 12.8874 4.2373C12.8929 4.2373 12.8984 4.2373 12.904 4.2373C12.9095 4.2373 12.915 4.2373 12.9205 4.2373C12.9261 4.2373 12.9316 4.2373 12.9372 4.2373C12.9427 4.2373 12.9482 4.2373 12.9538 4.2373C12.9593 4.2373 12.9649 4.2373 12.9704 4.2373C12.976 4.2373 12.9815 4.2373 12.9871 4.2373C12.9927 4.2373 12.9982 4.2373 13.0038 4.2373C13.0094 4.2373 13.015 4.2373 13.0205 4.2373C13.0261 4.2373 13.0317 4.2373 13.0373 4.2373C13.0429 4.2373 13.0485 4.2373 13.0541 4.2373C13.0597 4.2373 13.0653 4.2373 13.0709 4.2373C13.0765 4.2373 13.0821 4.2373 13.0877 4.2373C13.0933 4.2373 13.0989 4.2373 13.1045 4.2373C13.1102 4.2373 13.1158 4.2373 13.1214 4.2373C13.1271 4.2373 13.1327 4.2373 13.1383 4.2373C13.144 4.2373 13.1496 4.2373 13.1552 4.2373C13.1609 4.2373 13.1665 4.2373 13.1722 4.2373C13.1779 4.2373 13.1835 4.2373 13.1892 4.2373C13.1948 4.2373 13.2005 4.2373 13.2062 4.2373C13.2119 4.2373 13.2175 4.2373 13.2232 4.2373C13.2289 4.2373 13.2346 4.2373 13.2403 4.2373C13.246 4.2373 13.2517 4.2373 13.2573 4.2373C13.263 4.2373 13.2687 4.2373 13.2745 4.2373C13.2802 4.2373 13.2859 4.2373 13.2916 4.2373C13.2973 4.2373 13.303 4.2373 13.3088 4.2373C13.3145 4.2373 13.3202 4.2373 13.3259 4.2373C13.3317 4.2373 13.3374 4.2373 13.3432 4.2373C13.3489 4.2373 13.3546 4.2373 13.3604 4.2373C13.3661 4.2373 13.3719 4.2373 13.3777 4.2373C13.3834 4.2373 13.3892 4.2373 13.395 4.2373C13.4007 4.2373 13.4065 4.2373 13.4123 4.2373C13.4181 4.2373 13.4238 4.2373 13.4296 4.2373C13.4354 4.2373 13.4412 4.2373 13.447 4.2373C13.4528 4.2373 13.4586 4.2373 13.4644 4.2373C13.4702 4.2373 13.476 4.2373 13.4818 4.2373C13.4877 4.2373 13.4935 4.2373 13.4993 4.2373C13.5051 4.2373 13.511 4.2373 13.5168 4.2373C13.5226 4.2373 13.5285 4.2373 13.5343 4.2373C13.5402 4.2373 13.546 4.2373 13.5519 4.2373C13.5577 4.2373 13.5636 4.2373 13.5694 4.2373C13.5753 4.2373 13.5812 4.2373 13.587 4.2373C13.5929 4.2373 13.5988 4.2373 13.6047 4.2373C13.6105 4.2373 13.6164 4.2373 13.6223 4.2373C13.6282 4.2373 13.6341 4.2373 13.64 4.2373C13.6459 4.2373 13.6518 4.2373 13.6577 4.2373C13.6636 4.2373 13.6695 4.2373 13.6755 4.2373C13.6814 4.2373 13.6873 4.2373 13.6932 4.2373C13.6992 4.2373 13.7051 4.2373 13.711 4.2373C13.717 4.2373 13.7229 4.2373 13.7289 4.2373C13.7348 4.2373 13.7408 4.2373 13.7467 4.2373C13.7527 4.2373 13.7587 4.2373 13.7646 4.2373C13.7706 4.2373 13.7766 4.2373 13.7826 4.2373C13.7885 4.2373 13.7945 4.2373 13.8005 4.2373C13.8065 4.2373 13.8125 4.2373 13.8185 4.2373C13.8245 4.2373 13.8305 4.2373 13.8365 4.2373C13.8425 4.2373 13.8485 4.2373 13.8545 4.2373C13.8606 4.2373 13.8666 4.2373 13.8726 4.2373C13.8787 4.2373 13.8847 4.2373 13.8907 4.2373C13.8968 4.2373 13.9028 4.2373 13.9089 4.2373C13.9149 4.2373 13.921 4.2373 13.927 4.2373C13.9331 4.2373 13.9392 4.2373 13.9452 4.2373C13.9513 4.2373 13.9574 4.2373 13.9635 4.2373C13.9695 4.2373 13.9756 4.2373 13.9817 4.2373C13.9878 4.2373 13.9939 4.2373 14 4.2373V2.7373C13.9939 2.7373 13.9878 2.7373 13.9817 2.7373C13.9756 2.7373 13.9695 2.7373 13.9635 2.7373C13.9574 2.7373 13.9513 2.7373 13.9452 2.7373C13.9392 2.7373 13.9331 2.7373 13.927 2.7373C13.921 2.7373 13.9149 2.7373 13.9089 2.7373C13.9028 2.7373 13.8968 2.7373 13.8907 2.7373C13.8847 2.7373 13.8787 2.7373 13.8726 2.7373C13.8666 2.7373 13.8606 2.7373 13.8545 2.7373C13.8485 2.7373 13.8425 2.7373 13.8365 2.7373C13.8305 2.7373 13.8245 2.7373 13.8185 2.7373C13.8125 2.7373 13.8065 2.7373 13.8005 2.7373C13.7945 2.7373 13.7885 2.7373 13.7826 2.7373C13.7766 2.7373 13.7706 2.7373 13.7646 2.7373C13.7587 2.7373 13.7527 2.7373 13.7467 2.7373C13.7408 2.7373 13.7348 2.7373 13.7289 2.7373C13.7229 2.7373 13.717 2.7373 13.711 2.7373C13.7051 2.7373 13.6992 2.7373 13.6932 2.7373C13.6873 2.7373 13.6814 2.7373 13.6755 2.7373C13.6695 2.7373 13.6636 2.7373 13.6577 2.7373C13.6518 2.7373 13.6459 2.7373 13.64 2.7373C13.6341 2.7373 13.6282 2.7373 13.6223 2.7373C13.6164 2.7373 13.6105 2.7373 13.6047 2.7373C13.5988 2.7373 13.5929 2.7373 13.587 2.7373C13.5812 2.7373 13.5753 2.7373 13.5694 2.7373C13.5636 2.7373 13.5577 2.7373 13.5519 2.7373C13.546 2.7373 13.5402 2.7373 13.5343 2.7373C13.5285 2.7373 13.5226 2.7373 13.5168 2.7373C13.511 2.7373 13.5051 2.7373 13.4993 2.7373C13.4935 2.7373 13.4877 2.7373 13.4818 2.7373C13.476 2.7373 13.4702 2.7373 13.4644 2.7373C13.4586 2.7373 13.4528 2.7373 13.447 2.7373C13.4412 2.7373 13.4354 2.7373 13.4296 2.7373C13.4238 2.7373 13.4181 2.7373 13.4123 2.7373C13.4065 2.7373 13.4007 2.7373 13.395 2.7373C13.3892 2.7373 13.3834 2.7373 13.3777 2.7373C13.3719 2.7373 13.3661 2.7373 13.3604 2.7373C13.3546 2.7373 13.3489 2.7373 13.3432 2.7373C13.3374 2.7373 13.3317 2.7373 13.3259 2.7373C13.3202 2.7373 13.3145 2.7373 13.3088 2.7373C13.303 2.7373 13.2973 2.7373 13.2916 2.7373C13.2859 2.7373 13.2802 2.7373 13.2745 2.7373C13.2687 2.7373 13.263 2.7373 13.2573 2.7373C13.2517 2.7373 13.246 2.7373 13.2403 2.7373C13.2346 2.7373 13.2289 2.7373 13.2232 2.7373C13.2175 2.7373 13.2119 2.7373 13.2062 2.7373C13.2005 2.7373 13.1948 2.7373 13.1892 2.7373C13.1835 2.7373 13.1779 2.7373 13.1722 2.7373C13.1665 2.7373 13.1609 2.7373 13.1552 2.7373C13.1496 2.7373 13.144 2.7373 13.1383 2.7373C13.1327 2.7373 13.1271 2.7373 13.1214 2.7373C13.1158 2.7373 13.1102 2.7373 13.1045 2.7373C13.0989 2.7373 13.0933 2.7373 13.0877 2.7373C13.0821 2.7373 13.0765 2.7373 13.0709 2.7373C13.0653 2.7373 13.0597 2.7373 13.0541 2.7373C13.0485 2.7373 13.0429 2.7373 13.0373 2.7373C13.0317 2.7373 13.0261 2.7373 13.0205 2.7373C13.015 2.7373 13.0094 2.7373 13.0038 2.7373C12.9982 2.7373 12.9927 2.7373 12.9871 2.7373C12.9815 2.7373 12.976 2.7373 12.9704 2.7373C12.9649 2.7373 12.9593 2.7373 12.9538 2.7373C12.9482 2.7373 12.9427 2.7373 12.9372 2.7373C12.9316 2.7373 12.9261 2.7373 12.9205 2.7373C12.915 2.7373 12.9095 2.7373 12.904 2.7373C12.8984 2.7373 12.8929 2.7373 12.8874 2.7373C12.8819 2.7373 12.8764 2.7373 12.8709 2.7373C12.8654 2.7373 12.8599 2.7373 12.8544 2.7373C12.8489 2.7373 12.8434 2.7373 12.8379 2.7373C12.8324 2.7373 12.8269 2.7373 12.8214 2.7373C12.8159 2.7373 12.8104 2.7373 12.805 2.7373C12.7995 2.7373 12.794 2.7373 12.7885 2.7373C12.7831 2.7373 12.7776 2.7373 12.7722 2.7373C12.7667 2.7373 12.7612 2.7373 12.7558 2.7373C12.7503 2.7373 12.7449 2.7373 12.7394 2.7373C12.734 2.7373 12.7285 2.7373 12.7231 2.7373C12.7177 2.7373 12.7122 2.7373 12.7068 2.7373C12.7014 2.7373 12.6959 2.7373 12.6905 2.7373C12.6851 2.7373 12.6797 2.7373 12.6742 2.7373C12.6688 2.7373 12.6634 2.7373 12.658 2.7373C12.6526 2.7373 12.6472 2.7373 12.6418 2.7373C12.6364 2.7373 12.631 2.7373 12.6256 2.7373C12.6202 2.7373 12.6148 2.7373 12.6094 2.7373C12.604 2.7373 12.5986 2.7373 12.5933 2.7373C12.5879 2.7373 12.5825 2.7373 12.5771 2.7373C12.5718 2.7373 12.5664 2.7373 12.561 2.7373C12.5557 2.7373 12.5503 2.7373 12.5449 2.7373C12.5396 2.7373 12.5342 2.7373 12.5289 2.7373C12.5235 2.7373 12.5182 2.7373 12.5128 2.7373C12.5075 2.7373 12.5021 2.7373 12.4968 2.7373C12.4915 2.7373 12.4861 2.7373 12.4808 2.7373C12.4755 2.7373 12.4701 2.7373 12.4648 2.7373C12.4595 2.7373 12.4542 2.7373 12.4488 2.7373C12.4435 2.7373 12.4382 2.7373 12.4329 2.7373C12.4276 2.7373 12.4223 2.7373 12.417 2.7373C12.4117 2.7373 12.4064 2.7373 12.4011 2.7373C12.3958 2.7373 12.3905 2.7373 12.3852 2.7373C12.3799 2.7373 12.3746 2.7373 12.3693 2.7373C12.364 2.7373 12.3587 2.7373 12.3535 2.7373C12.3482 2.7373 12.3429 2.7373 12.3376 2.7373C12.3324 2.7373 12.3271 2.7373 12.3218 2.7373C12.3166 2.7373 12.3113 2.7373 12.306 2.7373C12.3008 2.7373 12.2955 2.7373 12.2903 2.7373C12.285 2.7373 12.2798 2.7373 12.2745 2.7373C12.2693 2.7373 12.264 2.7373 12.2588 2.7373C12.2536 2.7373 12.2483 2.7373 12.2431 2.7373C12.2379 2.7373 12.2326 2.7373 12.2274 2.7373C12.2222 2.7373 12.2169 2.7373 12.2117 2.7373C12.2065 2.7373 12.2013 2.7373 12.1961 2.7373C12.1908 2.7373 12.1856 2.7373 12.1804 2.7373C12.1752 2.7373 12.17 2.7373 12.1648 2.7373C12.1596 2.7373 12.1544 2.7373 12.1492 2.7373C12.144 2.7373 12.1388 2.7373 12.1336 2.7373C12.1284 2.7373 12.1232 2.7373 12.1181 2.7373C12.1129 2.7373 12.1077 2.7373 12.1025 2.7373C12.0973 2.7373 12.0921 2.7373 12.087 2.7373C12.0818 2.7373 12.0766 2.7373 12.0715 2.7373C12.0663 2.7373 12.0611 2.7373 12.056 2.7373C12.0508 2.7373 12.0456 2.7373 12.0405 2.7373C12.0353 2.7373 12.0302 2.7373 12.025 2.7373C12.0199 2.7373 12.0147 2.7373 12.0096 2.7373C12.0044 2.7373 11.9993 2.7373 11.9942 2.7373C11.989 2.7373 11.9839 2.7373 11.9787 2.7373C11.9736 2.7373 11.9685 2.7373 11.9633 2.7373C11.9582 2.7373 11.9531 2.7373 11.948 2.7373C11.9428 2.7373 11.9377 2.7373 11.9326 2.7373C11.9275 2.7373 11.9224 2.7373 11.9173 2.7373C11.9121 2.7373 11.907 2.7373 11.9019 2.7373C11.8968 2.7373 11.8917 2.7373 11.8866 2.7373C11.8815 2.7373 11.8764 2.7373 11.8713 2.7373C11.8662 2.7373 11.8611 2.7373 11.856 2.7373C11.8509 2.7373 11.8459 2.7373 11.8408 2.7373C11.8357 2.7373 11.8306 2.7373 11.8255 2.7373C11.8204 2.7373 11.8154 2.7373 11.8103 2.7373C11.8052 2.7373 11.8001 2.7373 11.7951 2.7373C11.79 2.7373 11.7849 2.7373 11.7799 2.7373C11.7748 2.7373 11.7697 2.7373 11.7647 2.7373C11.7596 2.7373 11.7545 2.7373 11.7495 2.7373C11.7444 2.7373 11.7394 2.7373 11.7343 2.7373C11.7293 2.7373 11.7242 2.7373 11.7192 2.7373C11.7141 2.7373 11.7091 2.7373 11.7041 2.7373C11.699 2.7373 11.694 2.7373 11.6889 2.7373C11.6839 2.7373 11.6789 2.7373 11.6738 2.7373C11.6688 2.7373 11.6638 2.7373 11.6587 2.7373C11.6537 2.7373 11.6487 2.7373 11.6437 2.7373C11.6386 2.7373 11.6336 2.7373 11.6286 2.7373C11.6236 2.7373 11.6186 2.7373 11.6136 2.7373C11.6085 2.7373 11.6035 2.7373 11.5985 2.7373C11.5935 2.7373 11.5885 2.7373 11.5835 2.7373C11.5785 2.7373 11.5735 2.7373 11.5685 2.7373C11.5635 2.7373 11.5585 2.7373 11.5535 2.7373C11.5485 2.7373 11.5435 2.7373 11.5385 2.7373C11.5335 2.7373 11.5285 2.7373 11.5236 2.7373C11.5186 2.7373 11.5136 2.7373 11.5086 2.7373C11.5036 2.7373 11.4986 2.7373 11.4937 2.7373C11.4887 2.7373 11.4837 2.7373 11.4787 2.7373C11.4738 2.7373 11.4688 2.7373 11.4638 2.7373C11.4588 2.7373 11.4539 2.7373 11.4489 2.7373C11.4439 2.7373 11.439 2.7373 11.434 2.7373C11.4291 2.7373 11.4241 2.7373 11.4191 2.7373C11.4142 2.7373 11.4092 2.7373 11.4043 2.7373C11.3993 2.7373 11.3944 2.7373 11.3894 2.7373C11.3845 2.7373 11.3795 2.7373 11.3746 2.7373C11.3696 2.7373 11.3647 2.7373 11.3597 2.7373C11.3548 2.7373 11.3499 2.7373 11.3449 2.7373C11.34 2.7373 11.335 2.7373 11.3301 2.7373C11.3252 2.7373 11.3202 2.7373 11.3153 2.7373C11.3104 2.7373 11.3055 2.7373 11.3005 2.7373C11.2956 2.7373 11.2907 2.7373 11.2857 2.7373C11.2808 2.7373 11.2759 2.7373 11.271 2.7373C11.2661 2.7373 11.2611 2.7373 11.2562 2.7373C11.2513 2.7373 11.2464 2.7373 11.2415 2.7373C11.2366 2.7373 11.2317 2.7373 11.2268 2.7373C11.2218 2.7373 11.2169 2.7373 11.212 2.7373C11.2071 2.7373 11.2022 2.7373 11.1973 2.7373C11.1924 2.7373 11.1875 2.7373 11.1826 2.7373C11.1777 2.7373 11.1728 2.7373 11.1679 2.7373C11.163 2.7373 11.1581 2.7373 11.1532 2.7373C11.1483 2.7373 11.1435 2.7373 11.1386 2.7373C11.1337 2.7373 11.1288 2.7373 11.1239 2.7373C11.119 2.7373 11.1141 2.7373 11.1093 2.7373C11.1044 2.7373 11.0995 2.7373 11.0946 2.7373C11.0897 2.7373 11.0848 2.7373 11.08 2.7373C11.0751 2.7373 11.0702 2.7373 11.0653 2.7373C11.0605 2.7373 11.0556 2.7373 11.0507 2.7373C11.0459 2.7373 11.041 2.7373 11.0361 2.7373C11.0313 2.7373 11.0264 2.7373 11.0215 2.7373C11.0167 2.7373 11.0118 2.7373 11.0069 2.7373C11.0021 2.7373 10.9972 2.7373 10.9924 2.7373C10.9875 2.7373 10.9826 2.7373 10.9778 2.7373C10.9729 2.7373 10.9681 2.7373 10.9632 2.7373C10.9584 2.7373 10.9535 2.7373 10.9487 2.7373C10.9438 2.7373 10.939 2.7373 10.9341 2.7373C10.9293 2.7373 10.9244 2.7373 10.9196 2.7373C10.9147 2.7373 10.9099 2.7373 10.905 2.7373C10.9002 2.7373 10.8954 2.7373 10.8905 2.7373C10.8857 2.7373 10.8808 2.7373 10.876 2.7373C10.8712 2.7373 10.8663 2.7373 10.8615 2.7373C10.8567 2.7373 10.8518 2.7373 10.847 2.7373C10.8422 2.7373 10.8373 2.7373 10.8325 2.7373C10.8277 2.7373 10.8228 2.7373 10.818 2.7373C10.8132 2.7373 10.8084 2.7373 10.8035 2.7373C10.7987 2.7373 10.7939 2.7373 10.7891 2.7373C10.7842 2.7373 10.7794 2.7373 10.7746 2.7373C10.7698 2.7373 10.7649 2.7373 10.7601 2.7373C10.7553 2.7373 10.7505 2.7373 10.7457 2.7373C10.7409 2.7373 10.736 2.7373 10.7312 2.7373C10.7264 2.7373 10.7216 2.7373 10.7168 2.7373C10.712 2.7373 10.7072 2.7373 10.7024 2.7373C10.6975 2.7373 10.6927 2.7373 10.6879 2.7373C10.6831 2.7373 10.6783 2.7373 10.6735 2.7373C10.6687 2.7373 10.6639 2.7373 10.6591 2.7373C10.6543 2.7373 10.6495 2.7373 10.6447 2.7373C10.6399 2.7373 10.6351 2.7373 10.6303 2.7373C10.6255 2.7373 10.6207 2.7373 10.6159 2.7373C10.6111 2.7373 10.6063 2.7373 10.6015 2.7373C10.5967 2.7373 10.5919 2.7373 10.5871 2.7373C10.5823 2.7373 10.5775 2.7373 10.5727 2.7373C10.5679 2.7373 10.5631 2.7373 10.5583 2.7373C10.5535 2.7373 10.5487 2.7373 10.5439 2.7373C10.5391 2.7373 10.5344 2.7373 10.5296 2.7373C10.5248 2.7373 10.52 2.7373 10.5152 2.7373C10.5104 2.7373 10.5056 2.7373 10.5008 2.7373C10.4961 2.7373 10.4913 2.7373 10.4865 2.7373C10.4817 2.7373 10.4769 2.7373 10.4721 2.7373C10.4673 2.7373 10.4626 2.7373 10.4578 2.7373C10.453 2.7373 10.4482 2.7373 10.4434 2.7373C10.4387 2.7373 10.4339 2.7373 10.4291 2.7373C10.4243 2.7373 10.4195 2.7373 10.4148 2.7373C10.41 2.7373 10.4052 2.7373 10.4004 2.7373C10.3956 2.7373 10.3909 2.7373 10.3861 2.7373C10.3813 2.7373 10.3765 2.7373 10.3718 2.7373C10.367 2.7373 10.3622 2.7373 10.3574 2.7373C10.3527 2.7373 10.3479 2.7373 10.3431 2.7373C10.3383 2.7373 10.3336 2.7373 10.3288 2.7373C10.324 2.7373 10.3193 2.7373 10.3145 2.7373C10.3097 2.7373 10.3049 2.7373 10.3002 2.7373C10.2954 2.7373 10.2906 2.7373 10.2859 2.7373C10.2811 2.7373 10.2763 2.7373 10.2715 2.7373C10.2668 2.7373 10.262 2.7373 10.2572 2.7373C10.2525 2.7373 10.2477 2.7373 10.2429 2.7373C10.2382 2.7373 10.2334 2.7373 10.2286 2.7373C10.2239 2.7373 10.2191 2.7373 10.2143 2.7373C10.2096 2.7373 10.2048 2.7373 10.2 2.7373C10.1953 2.7373 10.1905 2.7373 10.1857 2.7373C10.181 2.7373 10.1762 2.7373 10.1715 2.7373C10.1667 2.7373 10.1619 2.7373 10.1572 2.7373C10.1524 2.7373 10.1476 2.7373 10.1429 2.7373C10.1381 2.7373 10.1333 2.7373 10.1286 2.7373C10.1238 2.7373 10.1191 2.7373 10.1143 2.7373C10.1095 2.7373 10.1048 2.7373 10.1 2.7373C10.0952 2.7373 10.0905 2.7373 10.0857 2.7373C10.0809 2.7373 10.0762 2.7373 10.0714 2.7373C10.0667 2.7373 10.0619 2.7373 10.0571 2.7373C10.0524 2.7373 10.0476 2.7373 10.0429 2.7373C10.0381 2.7373 10.0333 2.7373 10.0286 2.7373C10.0238 2.7373 10.019 2.7373 10.0143 2.7373C10.0095 2.7373 10.0048 2.7373 10 2.7373C9.99524 2.7373 9.99048 2.7373 9.98572 2.7373C9.98095 2.7373 9.97619 2.7373 9.97143 2.7373C9.96667 2.7373 9.96191 2.7373 9.95715 2.7373C9.95238 2.7373 9.94762 2.7373 9.94286 2.7373C9.9381 2.7373 9.93334 2.7373 9.92857 2.7373C9.92381 2.7373 9.91905 2.7373 9.91429 2.7373C9.90953 2.7373 9.90476 2.7373 9.9 2.7373C9.89524 2.7373 9.89048 2.7373 9.88571 2.7373C9.88095 2.7373 9.87619 2.7373 9.87142 2.7373C9.86666 2.7373 9.8619 2.7373 9.85713 2.7373C9.85237 2.7373 9.84761 2.7373 9.84284 2.7373C9.83808 2.7373 9.83331 2.7373 9.82855 2.7373C9.82378 2.7373 9.81902 2.7373 9.81426 2.7373C9.80949 2.7373 9.80473 2.7373 9.79996 2.7373C9.79519 2.7373 9.79043 2.7373 9.78566 2.7373C9.7809 2.7373 9.77613 2.7373 9.77136 2.7373C9.7666 2.7373 9.76183 2.7373 9.75706 2.7373C9.75229 2.7373 9.74753 2.7373 9.74276 2.7373C9.73799 2.7373 9.73322 2.7373 9.72845 2.7373C9.72368 2.7373 9.71891 2.7373 9.71414 2.7373C9.70938 2.7373 9.70461 2.7373 9.69983 2.7373C9.69506 2.7373 9.69029 2.7373 9.68552 2.7373C9.68075 2.7373 9.67598 2.7373 9.67121 2.7373C9.66643 2.7373 9.66166 2.7373 9.65689 2.7373C9.65211 2.7373 9.64734 2.7373 9.64257 2.7373C9.63779 2.7373 9.63302 2.7373 9.62824 2.7373C9.62347 2.7373 9.61869 2.7373 9.61391 2.7373C9.60914 2.7373 9.60436 2.7373 9.59958 2.7373C9.5948 2.7373 9.59003 2.7373 9.58525 2.7373C9.58047 2.7373 9.57569 2.7373 9.57091 2.7373C9.56613 2.7373 9.56135 2.7373 9.55657 2.7373C9.55179 2.7373 9.54701 2.7373 9.54222 2.7373C9.53744 2.7373 9.53266 2.7373 9.52787 2.7373C9.52309 2.7373 9.51831 2.7373 9.51352 2.7373C9.50873 2.7373 9.50395 2.7373 9.49916 2.7373C9.49438 2.7373 9.48959 2.7373 9.4848 2.7373C9.48001 2.7373 9.47522 2.7373 9.47043 2.7373C9.46564 2.7373 9.46085 2.7373 9.45606 2.7373C9.45127 2.7373 9.44648 2.7373 9.44169 2.7373C9.4369 2.7373 9.4321 2.7373 9.42731 2.7373C9.42251 2.7373 9.41772 2.7373 9.41292 2.7373C9.40813 2.7373 9.40333 2.7373 9.39853 2.7373C9.39373 2.7373 9.38894 2.7373 9.38414 2.7373C9.37934 2.7373 9.37454 2.7373 9.36974 2.7373C9.36493 2.7373 9.36013 2.7373 9.35533 2.7373C9.35053 2.7373 9.34572 2.7373 9.34092 2.7373C9.33611 2.7373 9.33131 2.7373 9.3265 2.7373C9.32169 2.7373 9.31689 2.7373 9.31208 2.7373C9.30727 2.7373 9.30246 2.7373 9.29765 2.7373C9.29284 2.7373 9.28803 2.7373 9.28321 2.7373C9.2784 2.7373 9.27359 2.7373 9.26877 2.7373C9.26396 2.7373 9.25914 2.7373 9.25433 2.7373C9.24951 2.7373 9.24469 2.7373 9.23987 2.7373C9.23505 2.7373 9.23023 2.7373 9.22541 2.7373C9.22059 2.7373 9.21577 2.7373 9.21095 2.7373C9.20612 2.7373 9.2013 2.7373 9.19647 2.7373C9.19165 2.7373 9.18682 2.7373 9.18199 2.7373C9.17716 2.7373 9.17233 2.7373 9.1675 2.7373C9.16267 2.7373 9.15784 2.7373 9.15301 2.7373C9.14818 2.7373 9.14334 2.7373 9.13851 2.7373C9.13367 2.7373 9.12884 2.7373 9.124 2.7373C9.11916 2.7373 9.11432 2.7373 9.10948 2.7373C9.10464 2.7373 9.0998 2.7373 9.09496 2.7373C9.09011 2.7373 9.08527 2.7373 9.08043 2.7373C9.07558 2.7373 9.07073 2.7373 9.06588 2.7373C9.06104 2.7373 9.05619 2.7373 9.05134 2.7373C9.04649 2.7373 9.04163 2.7373 9.03678 2.7373C9.03193 2.7373 9.02707 2.7373 9.02222 2.7373C9.01736 2.7373 9.0125 2.7373 9.00764 2.7373C9.00279 2.7373 8.99793 2.7373 8.99306 2.7373C8.9882 2.7373 8.98334 2.7373 8.97847 2.7373C8.97361 2.7373 8.96874 2.7373 8.96388 2.7373C8.95901 2.7373 8.95414 2.7373 8.94927 2.7373C8.9444 2.7373 8.93953 2.7373 8.93465 2.7373C8.92978 2.7373 8.9249 2.7373 8.92003 2.7373C8.91515 2.7373 8.91027 2.7373 8.90539 2.7373C8.90051 2.7373 8.89563 2.7373 8.89075 2.7373C8.88587 2.7373 8.88098 2.7373 8.8761 2.7373C8.87121 2.7373 8.86632 2.7373 8.86143 2.7373C8.85654 2.7373 8.85165 2.7373 8.84676 2.7373C8.84187 2.7373 8.83697 2.7373 8.83208 2.7373C8.82718 2.7373 8.82229 2.7373 8.81739 2.7373C8.81249 2.7373 8.80759 2.7373 8.80268 2.7373C8.79778 2.7373 8.79288 2.7373 8.78797 2.7373C8.78307 2.7373 8.77816 2.7373 8.77325 2.7373C8.76834 2.7373 8.76343 2.7373 8.75852 2.7373C8.7536 2.7373 8.74869 2.7373 8.74377 2.7373C8.73886 2.7373 8.73394 2.7373 8.72902 2.7373C8.7241 2.7373 8.71918 2.7373 8.71425 2.7373C8.70933 2.7373 8.7044 2.7373 8.69948 2.7373C8.69455 2.7373 8.68962 2.7373 8.68469 2.7373C8.67976 2.7373 8.67483 2.7373 8.66989 2.7373C8.66496 2.7373 8.66002 2.7373 8.65508 2.7373C8.65014 2.7373 8.6452 2.7373 8.64026 2.7373C8.63532 2.7373 8.63037 2.7373 8.62543 2.7373C8.62048 2.7373 8.61553 2.7373 8.61058 2.7373C8.60563 2.7373 8.60068 2.7373 8.59573 2.7373C8.59077 2.7373 8.58582 2.7373 8.58086 2.7373C8.5759 2.7373 8.57094 2.7373 8.56598 2.7373C8.56102 2.7373 8.55605 2.7373 8.55109 2.7373C8.54612 2.7373 8.54115 2.7373 8.53618 2.7373C8.53121 2.7373 8.52624 2.7373 8.52127 2.7373C8.51629 2.7373 8.51132 2.7373 8.50634 2.7373C8.50136 2.7373 8.49638 2.7373 8.4914 2.7373C8.48641 2.7373 8.48143 2.7373 8.47644 2.7373C8.47145 2.7373 8.46646 2.7373 8.46147 2.7373C8.45648 2.7373 8.45149 2.7373 8.44649 2.7373C8.4415 2.7373 8.4365 2.7373 8.4315 2.7373C8.4265 2.7373 8.4215 2.7373 8.41649 2.7373C8.41149 2.7373 8.40648 2.7373 8.40147 2.7373C8.39646 2.7373 8.39145 2.7373 8.38644 2.7373C8.38142 2.7373 8.37641 2.7373 8.37139 2.7373C8.36637 2.7373 8.36135 2.7373 8.35633 2.7373C8.35131 2.7373 8.34628 2.7373 8.34126 2.7373C8.33623 2.7373 8.3312 2.7373 8.32617 2.7373C8.32113 2.7373 8.3161 2.7373 8.31106 2.7373C8.30603 2.7373 8.30099 2.7373 8.29595 2.7373C8.2909 2.7373 8.28586 2.7373 8.28081 2.7373C8.27577 2.7373 8.27072 2.7373 8.26567 2.7373C8.26062 2.7373 8.25556 2.7373 8.25051 2.7373C8.24545 2.7373 8.24039 2.7373 8.23533 2.7373C8.23027 2.7373 8.22521 2.7373 8.22014 2.7373C8.21507 2.7373 8.21001 2.7373 8.20494 2.7373C8.19986 2.7373 8.19479 2.7373 8.18971 2.7373C8.18464 2.7373 8.17956 2.7373 8.17448 2.7373C8.1694 2.7373 8.16431 2.7373 8.15923 2.7373C8.15414 2.7373 8.14905 2.7373 8.14396 2.7373C8.13887 2.7373 8.13378 2.7373 8.12868 2.7373C8.12358 2.7373 8.11848 2.7373 8.11338 2.7373C8.10828 2.7373 8.10318 2.7373 8.09807 2.7373C8.09296 2.7373 8.08785 2.7373 8.08274 2.7373C8.07763 2.7373 8.07251 2.7373 8.06739 2.7373C8.06228 2.7373 8.05715 2.7373 8.05203 2.7373C8.04691 2.7373 8.04178 2.7373 8.03665 2.7373C8.03152 2.7373 8.02639 2.7373 8.02126 2.7373C8.01612 2.7373 8.01099 2.7373 8.00585 2.7373C8.00071 2.7373 7.99556 2.7373 7.99042 2.7373C7.98527 2.7373 7.98013 2.7373 7.97497 2.7373C7.96982 2.7373 7.96467 2.7373 7.95951 2.7373C7.95436 2.7373 7.9492 2.7373 7.94403 2.7373C7.93887 2.7373 7.93371 2.7373 7.92854 2.7373C7.92337 2.7373 7.9182 2.7373 7.91303 2.7373C7.90785 2.7373 7.90267 2.7373 7.8975 2.7373C7.89232 2.7373 7.88713 2.7373 7.88195 2.7373C7.87676 2.7373 7.87157 2.7373 7.86638 2.7373C7.86119 2.7373 7.856 2.7373 7.8508 2.7373C7.8456 2.7373 7.8404 2.7373 7.8352 2.7373C7.82999 2.7373 7.82479 2.7373 7.81958 2.7373C7.81437 2.7373 7.80915 2.7373 7.80394 2.7373C7.79872 2.7373 7.7935 2.7373 7.78828 2.7373C7.78306 2.7373 7.77784 2.7373 7.77261 2.7373C7.76738 2.7373 7.76215 2.7373 7.75692 2.7373C7.75168 2.7373 7.74644 2.7373 7.7412 2.7373C7.73596 2.7373 7.73072 2.7373 7.72547 2.7373C7.72023 2.7373 7.71498 2.7373 7.70972 2.7373C7.70447 2.7373 7.69922 2.7373 7.69396 2.7373C7.6887 2.7373 7.68343 2.7373 7.67817 2.7373C7.6729 2.7373 7.66763 2.7373 7.66236 2.7373C7.65709 2.7373 7.65181 2.7373 7.64654 2.7373C7.64126 2.7373 7.63598 2.7373 7.63069 2.7373C7.62541 2.7373 7.62012 2.7373 7.61483 2.7373C7.60953 2.7373 7.60424 2.7373 7.59894 2.7373C7.59364 2.7373 7.58834 2.7373 7.58303 2.7373C7.57773 2.7373 7.57242 2.7373 7.56711 2.7373C7.5618 2.7373 7.55648 2.7373 7.55117 2.7373C7.54585 2.7373 7.54053 2.7373 7.5352 2.7373C7.52987 2.7373 7.52455 2.7373 7.51921 2.7373C7.51388 2.7373 7.50855 2.7373 7.50321 2.7373C7.49787 2.7373 7.49253 2.7373 7.48718 2.7373C7.48184 2.7373 7.47649 2.7373 7.47113 2.7373C7.46578 2.7373 7.46043 2.7373 7.45507 2.7373C7.44971 2.7373 7.44434 2.7373 7.43898 2.7373C7.43361 2.7373 7.42824 2.7373 7.42287 2.7373C7.41749 2.7373 7.41212 2.7373 7.40673 2.7373C7.40135 2.7373 7.39597 2.7373 7.39058 2.7373C7.38519 2.7373 7.3798 2.7373 7.37441 2.7373C7.36901 2.7373 7.36361 2.7373 7.35821 2.7373C7.35281 2.7373 7.3474 2.7373 7.34199 2.7373C7.33658 2.7373 7.33117 2.7373 7.32575 2.7373C7.32034 2.7373 7.31492 2.7373 7.30949 2.7373C7.30407 2.7373 7.29864 2.7373 7.29321 2.7373C7.28778 2.7373 7.28234 2.7373 7.2769 2.7373C7.27146 2.7373 7.26602 2.7373 7.26057 2.7373C7.25513 2.7373 7.24968 2.7373 7.24422 2.7373C7.23877 2.7373 7.23331 2.7373 7.22785 2.7373C7.22239 2.7373 7.21692 2.7373 7.21145 2.7373C7.20599 2.7373 7.20051 2.7373 7.19504 2.7373C7.18956 2.7373 7.18408 2.7373 7.17859 2.7373C7.17311 2.7373 7.16762 2.7373 7.16213 2.7373C7.15664 2.7373 7.15114 2.7373 7.14564 2.7373C7.14014 2.7373 7.13464 2.7373 7.12913 2.7373C7.12362 2.7373 7.11811 2.7373 7.11259 2.7373C7.10708 2.7373 7.10156 2.7373 7.09604 2.7373C7.09051 2.7373 7.08499 2.7373 7.07945 2.7373C7.07392 2.7373 7.06839 2.7373 7.06285 2.7373C7.05731 2.7373 7.05177 2.7373 7.04622 2.7373C7.04067 2.7373 7.03512 2.7373 7.02956 2.7373C7.02401 2.7373 7.01845 2.7373 7.01289 2.7373C7.00732 2.7373 7.00176 2.7373 6.99618 2.7373C6.99061 2.7373 6.98504 2.7373 6.97946 2.7373C6.97388 2.7373 6.96829 2.7373 6.96271 2.7373C6.95712 2.7373 6.95153 2.7373 6.94593 2.7373C6.94033 2.7373 6.93473 2.7373 6.92913 2.7373C6.92353 2.7373 6.91792 2.7373 6.9123 2.7373C6.90669 2.7373 6.90107 2.7373 6.89545 2.7373C6.88983 2.7373 6.88421 2.7373 6.87858 2.7373C6.87295 2.7373 6.86731 2.7373 6.86168 2.7373C6.85604 2.7373 6.8504 2.7373 6.84475 2.7373C6.8391 2.7373 6.83345 2.7373 6.8278 2.7373C6.82214 2.7373 6.81648 2.7373 6.81082 2.7373C6.80516 2.7373 6.79949 2.7373 6.79382 2.7373C6.78815 2.7373 6.78247 2.7373 6.77679 2.7373C6.77111 2.7373 6.76542 2.7373 6.75973 2.7373C6.75404 2.7373 6.74835 2.7373 6.74265 2.7373C6.73695 2.7373 6.73125 2.7373 6.72554 2.7373C6.71984 2.7373 6.71413 2.7373 6.70841 2.7373C6.70269 2.7373 6.69697 2.7373 6.69125 2.7373C6.68552 2.7373 6.67979 2.7373 6.67406 2.7373C6.66833 2.7373 6.66259 2.7373 6.65685 2.7373C6.6511 2.7373 6.64536 2.7373 6.63961 2.7373C6.63385 2.7373 6.6281 2.7373 6.62234 2.7373C6.61658 2.7373 6.61081 2.7373 6.60504 2.7373C6.59927 2.7373 6.5935 2.7373 6.58772 2.7373C6.58194 2.7373 6.57616 2.7373 6.57037 2.7373C6.56458 2.7373 6.55879 2.7373 6.55299 2.7373C6.5472 2.7373 6.5414 2.7373 6.53559 2.7373C6.52978 2.7373 6.52397 2.7373 6.51816 2.7373C6.51234 2.7373 6.50652 2.7373 6.5007 2.7373C6.49487 2.7373 6.48904 2.7373 6.48321 2.7373C6.47737 2.7373 6.47154 2.7373 6.46569 2.7373C6.45985 2.7373 6.454 2.7373 6.44815 2.7373C6.44229 2.7373 6.43644 2.7373 6.43057 2.7373C6.42471 2.7373 6.41885 2.7373 6.41297 2.7373C6.4071 2.7373 6.40122 2.7373 6.39534 2.7373C6.38946 2.7373 6.38358 2.7373 6.37768 2.7373C6.37179 2.7373 6.3659 2.7373 6.36 2.7373C6.3541 2.7373 6.34819 2.7373 6.34228 2.7373C6.33637 2.7373 6.33045 2.7373 6.32453 2.7373C6.31861 2.7373 6.31269 2.7373 6.30676 2.7373C6.30083 2.7373 6.2949 2.7373 6.28896 2.7373C6.28302 2.7373 6.27707 2.7373 6.27112 2.7373C6.26517 2.7373 6.25922 2.7373 6.25326 2.7373C6.2473 2.7373 6.24134 2.7373 6.23537 2.7373C6.2294 2.7373 6.22342 2.7373 6.21744 2.7373C6.21146 2.7373 6.20548 2.7373 6.19949 2.7373C6.1935 2.7373 6.18751 2.7373 6.18151 2.7373C6.17551 2.7373 6.1695 2.7373 6.1635 2.7373C6.15749 2.7373 6.15147 2.7373 6.14545 2.7373C6.13943 2.7373 6.13341 2.7373 6.12738 2.7373C6.12135 2.7373 6.11531 2.7373 6.10927 2.7373C6.10323 2.7373 6.09719 2.7373 6.09114 2.7373C6.08509 2.7373 6.07903 2.7373 6.07297 2.7373C6.06691 2.7373 6.06085 2.7373 6.05478 2.7373C6.04871 2.7373 6.04263 2.7373 6.03655 2.7373C6.03047 2.7373 6.02438 2.7373 6.01829 2.7373C6.0122 2.7373 6.0061 2.7373 6 2.7373V4.2373ZM18.25 8.4873V16.4873H19.75V8.4873H18.25ZM14 20.7373H6V22.2373H14V20.7373ZM1.75 16.4873V8.4873H0.25V16.4873H1.75ZM6 20.7373C3.65279 20.7373 1.75 18.8345 1.75 16.4873H0.25C0.25 19.6629 2.82436 22.2373 6 22.2373V20.7373ZM18.25 16.4873C18.25 18.8345 16.3472 20.7373 14 20.7373V22.2373C17.1756 22.2373 19.75 19.6629 19.75 16.4873H18.25ZM14 4.2373C16.3472 4.2373 18.25 6.14009 18.25 8.4873H19.75C19.75 5.31167 17.1756 2.7373 14 2.7373V4.2373ZM1.75029 4.61395C0.818911 5.63532 0.25 6.99574 0.25 8.4873H1.75C1.75 7.38409 2.16936 6.38055 2.85865 5.62466L1.75029 4.61395Z" fill="#2B3F6C"/>
<path d="M3 7.07072H15.5" stroke="#2B3F6C" stroke-width="1.5" stroke-linecap="round" stroke-linejoin="round"/>
<path d="M11.75 1.65405L11.75 4.15405" stroke="#2B3F6C" stroke-width="1.5" stroke-linecap="round" stroke-linejoin="round"/>
<path d="M4.25004 1.65405L4.25004 4.15405" stroke="#2B3F6C" stroke-width="1.5" stroke-linecap="round" stroke-linejoin="round"/>
<path d="M3.41663 10.4039H4.24996" stroke="#2B3F6C" stroke-width="1.5" stroke-linecap="round" stroke-linejoin="round"/>
<path d="M7.58325 10.4039H8.41659" stroke="#2B3F6C" stroke-width="1.5" stroke-linecap="round" stroke-linejoin="round"/>
<path d="M11.75 10.4039H12.5833" stroke="#2B3F6C" stroke-width="1.5" stroke-linecap="round" stroke-linejoin="round"/>
<path d="M3.41663 13.7371H4.24996" stroke="#2B3F6C" stroke-width="1.5" stroke-linecap="round" stroke-linejoin="round"/>
<path d="M7.58325 13.7371H8.41659" stroke="#2B3F6C" stroke-width="1.5" stroke-linecap="round" stroke-linejoin="round"/>
<path d="M11.75 13.7371H12.5833" stroke="#2B3F6C" stroke-width="1.5" stroke-linecap="round" stroke-linejoin="round"/>
</g>
<defs>
<clipPath id="clip0_0_1">
<rect x="-327" y="-418" width="393" height="852" rx="32" fill="white"/>
</clipPath>
</defs>
</svg>
