<svg width="20" height="21" viewBox="0 0 20 21" fill="none" xmlns="http://www.w3.org/2000/svg">
<path fill-rule="evenodd" clip-rule="evenodd" d="M9.99996 2.65405C5.39996 2.65405 1.66663 6.38739 1.66663 10.9874C1.66663 15.5874 5.39996 19.3207 9.99996 19.3207C14.6 19.3207 18.3333 15.5874 18.3333 10.9874C18.3333 6.38739 14.6 2.65405 9.99996 2.65405ZM9.99996 17.6541C6.31663 17.6541 3.33329 14.6707 3.33329 10.9874C3.33329 7.30405 6.31663 4.32072 9.99996 4.32072C13.6833 4.32072 16.6666 7.30405 16.6666 10.9874C16.6666 14.6707 13.6833 17.6541 9.99996 17.6541ZM9.99996 15.1541C12.3011 15.1541 14.1666 13.2886 14.1666 10.9874C14.1666 8.6862 12.3011 6.82072 9.99996 6.82072C7.69877 6.82072 5.83329 8.6862 5.83329 10.9874C5.83329 13.2886 7.69877 15.1541 9.99996 15.1541Z" fill="url(#paint0_linear_1871_1350)"/>
<defs>
<linearGradient id="paint0_linear_1871_1350" x1="1.66663" y1="19.3207" x2="18.3333" y2="19.3207" gradientUnits="userSpaceOnUse">
<stop stop-color="#F06100" stop-opacity="0.8"/>
<stop offset="0.5" stop-color="#F03000"/>
<stop offset="1" stop-color="#F00030"/>
<stop offset="1" stop-color="#F04900"/>
<stop offset="1" stop-color="#F0006D"/>
</linearGradient>
</defs>
</svg>
